<mxfile host="app.diagrams.net" modified="2022-06-07T13:11:38.520Z" agent="5.0 (Windows NT 10.0; Win64; x64) AppleWebKit/537.36 (KHTML, like Gecko) Chrome/102.0.5005.63 Safari/537.36" etag="ZNzeWzFMxzec-zYDWZxN" version="18.2.1" type="github">
  <diagram id="UTBzeKASmZqH0knm8FAY" name="Page-1">
    <mxGraphModel dx="1422" dy="794" grid="1" gridSize="10" guides="1" tooltips="1" connect="1" arrows="1" fold="1" page="1" pageScale="1" pageWidth="827" pageHeight="1169" math="0" shadow="0">
      <root>
        <mxCell id="0" />
        <mxCell id="1" parent="0" />
        <mxCell id="9oGmY_f7bCClrYBCYELp-1" value="Utilisateur" style="shape=umlActor;verticalLabelPosition=bottom;verticalAlign=top;html=1;outlineConnect=0;" parent="1" vertex="1">
          <mxGeometry x="130" y="300" width="30" height="60" as="geometry" />
        </mxCell>
        <mxCell id="9oGmY_f7bCClrYBCYELp-3" value="Voir tous les Rdv/évènements" style="shape=ellipse;html=1;strokeWidth=3;fontStyle=1;whiteSpace=wrap;align=center;perimeter=ellipsePerimeter;" parent="1" vertex="1">
          <mxGeometry x="340" y="440" width="120" height="60" as="geometry" />
        </mxCell>
        <mxCell id="9oGmY_f7bCClrYBCYELp-4" value="Supprimer un Rdv/évènement" style="shape=ellipse;html=1;strokeWidth=3;fontStyle=1;whiteSpace=wrap;align=center;perimeter=ellipsePerimeter;" parent="1" vertex="1">
          <mxGeometry x="340" y="340" width="120" height="60" as="geometry" />
        </mxCell>
        <mxCell id="9oGmY_f7bCClrYBCYELp-5" value="Modifier un Rdv/évènement" style="shape=ellipse;html=1;strokeWidth=3;fontStyle=1;whiteSpace=wrap;align=center;perimeter=ellipsePerimeter;" parent="1" vertex="1">
          <mxGeometry x="340" y="240" width="120" height="60" as="geometry" />
        </mxCell>
        <mxCell id="9oGmY_f7bCClrYBCYELp-6" value="Ajouter un Rdv/évènement" style="shape=ellipse;html=1;strokeWidth=3;fontStyle=1;whiteSpace=wrap;align=center;perimeter=ellipsePerimeter;" parent="1" vertex="1">
          <mxGeometry x="340" y="140" width="120" height="60" as="geometry" />
        </mxCell>
        <mxCell id="9oGmY_f7bCClrYBCYELp-7" value="" style="edgeStyle=none;html=1;endArrow=none;verticalAlign=bottom;rounded=0;entryX=0.342;entryY=0.983;entryDx=0;entryDy=0;entryPerimeter=0;" parent="1" source="9oGmY_f7bCClrYBCYELp-1" target="9oGmY_f7bCClrYBCYELp-6" edge="1">
          <mxGeometry width="160" relative="1" as="geometry">
            <mxPoint x="330" y="380" as="sourcePoint" />
            <mxPoint x="490" y="380" as="targetPoint" />
          </mxGeometry>
        </mxCell>
        <mxCell id="9oGmY_f7bCClrYBCYELp-8" value="" style="edgeStyle=none;html=1;endArrow=none;verticalAlign=bottom;rounded=0;entryX=0.025;entryY=0.717;entryDx=0;entryDy=0;entryPerimeter=0;" parent="1" source="9oGmY_f7bCClrYBCYELp-1" target="9oGmY_f7bCClrYBCYELp-5" edge="1">
          <mxGeometry width="160" relative="1" as="geometry">
            <mxPoint x="330" y="380" as="sourcePoint" />
            <mxPoint x="490" y="380" as="targetPoint" />
          </mxGeometry>
        </mxCell>
        <mxCell id="9oGmY_f7bCClrYBCYELp-9" value="" style="edgeStyle=none;html=1;endArrow=none;verticalAlign=bottom;rounded=0;entryX=0.25;entryY=0;entryDx=0;entryDy=0;entryPerimeter=0;" parent="1" source="9oGmY_f7bCClrYBCYELp-1" target="9oGmY_f7bCClrYBCYELp-4" edge="1">
          <mxGeometry width="160" relative="1" as="geometry">
            <mxPoint x="330" y="380" as="sourcePoint" />
            <mxPoint x="490" y="380" as="targetPoint" />
          </mxGeometry>
        </mxCell>
        <mxCell id="9oGmY_f7bCClrYBCYELp-11" value="" style="edgeStyle=none;html=1;endArrow=none;verticalAlign=bottom;rounded=0;entryX=0.333;entryY=0;entryDx=0;entryDy=0;entryPerimeter=0;" parent="1" source="9oGmY_f7bCClrYBCYELp-1" target="9oGmY_f7bCClrYBCYELp-3" edge="1">
          <mxGeometry width="160" relative="1" as="geometry">
            <mxPoint x="330" y="380" as="sourcePoint" />
            <mxPoint x="490" y="380" as="targetPoint" />
          </mxGeometry>
        </mxCell>
      </root>
    </mxGraphModel>
  </diagram>
</mxfile>
